<svg xmlns="http://www.w3.org/2000/svg" version="1.0" width="1024" height="1024" viewBox="800 800 8640 8640"><path d="M7423.852 839.848c-237.96.961-2619.328 147.415-3383.854 207.568h.047c-389.554 30.355-581.468 73.656-822.773 190.148l-.021.012-.023.012c-253.434 122.596-487.24 316.969-601.725 505.282l-.125.205-.123.205c-55.307 92.532-107.226 221.556-128.736 326.926-18.432 89.99-20.297 152.512-20.297 600.796v451.327l-35.018 12.734.815-.291c-255.878 89.138-516.502 276.494-700.24 499.672l-.018.02c-200.287 242.644-362.526 593.72-436.123 937.175l-.043.193-.039.193c-33.264 160.085-33.554 399.885.541 537.332l.031.125.031.125c28.36 112.387 100.388 270.467 166.928 363.444 0 .01.01.012.014.018 171.742 240.64 475.647 437.847 839.4 554.658l73.721 23.742V6090c0 41.12-12.977 569.247-29.975 1163.176v.074c-37 1348.047-36.45 1395.202-10.591 1515.187l.01.031.01.031c71.622 330.727 230.649 542.545 486.8 608.088 42.065 11.416 141.527 22.006 225.698 27.076l.103.01.104.01c199.684 11.381 1143.355 4.217 1400.162-9.994 1335.935-74.107 2183.809-245.071 2605.435-533.011l.116-.078.113-.08c110.953-76.483 333.372-300.267 418.01-420.875l.027-.037.025-.04c173.948-248.643 290.435-484.026 400.17-809.165l.017-.05.017-.05c98.101-292.28 191.315-725.047 191.315-908.295 0-63.941-36.171-572.677-81.178-1159.768l-.01-.107c-35.193-469.508-64.613-874.258-73.4-1020.3-.425-7.064-.556-10.346-.879-16.103 12.621-5.368 27.273-11.434 45.877-18.832 52.437-20.851 124.486-48.09 203.666-76.972l301.465-109.53 93.81-89.343.147-.141c118.378-114.188 209.455-237.712 283.845-387.541l.019-.035.02-.037c102.647-207.39 145.26-395.483 133.519-606.828v-.032c-13.606-242.818-98.352-491.648-230.693-667.748l-.041-.055-.04-.053c-170.962-226.499-484.035-369.815-871.16-410.998l.147.016a1669.53 1669.53 0 01-34.623-4.141c-3.776-71.1-9.833-213.627-15.527-381.613-8-235.992-16.945-470.333-20.067-523.465-6.572-119.121-33.32-204.58-94.955-277.535l-.244-.29-.248-.286c-57.661-66.631-167.704-120.922-257.686-129.696-5.916-.615-14.111-.751-21.691-.72zm21.691.72c.073.008.18.008.252.016l-.707-.072c.15.014.305.042.455.056zm-4623.076 8536.02c-.071-.02-.177-.037-.248-.057l1.053.28c-.272-.07-.534-.154-.805-.223zm4533.162-8091.975l3.648 96.078.012.272c3.94 84.716 15.965 455.12 27.965 821.127 10.8 329.408 19.887 604.16 23.246 660.404.373 6.25-89.789-58.583 19.4 50.606 28.78 28.778 120.945 18.622 206.942 14.617h.121l220.473-9.83-9.715-227.602-3.81-89.289c321.18 42.593 508.824 150.65 586.83 309.104 142.473 290.544 123.441 582.752-53.489 843.052l-.11.16-.107.16c-51.545 76.832-155.343 180.46-159.552 181.813l.847-.265c-71.666 21.938-974.619 358.226-1361.03 505.382h-.02c-837.379 319.145-1477.257 573.486-2003.22 796.895h-.01l-.012.01c-380.38 161.737-494.625 205.659-724.21 282.188-326.49 108.83-610.566 172.526-870.585 196.984-101.136 8.822-240.852 9.25-256.386 6.053l2.607.593c-24.359-6.09-77.918-12.33-147.07-21.35-335.66-45.027-658.697-165.985-865.141-319.808-282.91-212.673-350.02-490.952-201.77-935.742 106.594-318.813 274.824-564.252 495.829-731.236 43.775-32.823 123.054-79.387 176.865-110.15 1.39 51.126 2.039 123.995 2.039 225.161v383.78H2902.52l4.258-1050.563v-.04c1.5-542.538 1.277-795.865 8.776-929.735 6.993-124.85 13.19-121.994 49.982-198.924l.072-.15.072-.153c83.358-176.682 307.726-357.647 576.455-452.039l.106-.037.105-.037c175.472-62.326 278.654-75.515 966.983-123.469 651.426-44.327 2653.958-165.403 2846.298-174.02zm111.873 3402.04c24.494 293.989 114.92 1467.584 139.814 1810.245l-17.994 1.575-.119.012c-277.262 25.301-536.135 146.849-720.143 339.277-102.345 105.504-152.82 180.097-201.07 299.047-162.461 390.778-169.3 880.44-26.236 1372.99l18.5 63.664-25.557 11.434-.256.117c-384.953 176.315-1066.014 294.428-2073.398 357.328h-.018c-279.117 16.75-1361.665 26.308-1532.457 14.041h-.088c-69.455-4.891-112.366-13.13-124.957-19.426l-.64-.32-.65-.305c-41.065-19.392-104.962-121.982-134.487-277.804-10.492-58.92-8.954-195.197 21.01-1316.82v.052c17.964-652.401 31.5-1133.964 33.115-1193.947 5.62.755 11.08 1.469 17.109 2.33l-1.38-.213c128.585 21.254 402.157 19.894 565.634-1.681 469.503-60.104 902.729-193.276 1591.732-487.555l.084-.035c494.99-210.569 968.302-400.3 1712.774-686.098l.033-.014c446.303-171.038 664.872-253.086 759.644-287.89zM3403.234 6148.243c-.046.01-.092.014-.138.02l.256-.033c-.038 0-.08.01-.118.014zM6667.99 7136.81c.042-.102.081-.206.123-.307l-.22.535c.032-.08.065-.149.098-.228zm201.07-299.047c.06-.061.108-.115.167-.176l-.332.346.166-.17zm721.096 108.752c-2.523 13.504-5.27 27.907-8.816 46.593l.037-.203c-101.409 525.05-304.983 998.754-542.153 1277.557-10.943-47.082-22.966-106.043-33.357-166.213-22.669-133.25-22.212-444.285-.328-553.726v-.014c46.946-233.744 108.54-346.76 238.049-458.155l.043-.037.04-.035c73.739-63.647 224.57-126.474 346.483-145.767z" fill="#fff"/></svg>